<svg width="779" height="1024" viewBox="0 0 779 1024" fill="none" xmlns="http://www.w3.org/2000/svg">
<rect width="5.14355" height="13.22" rx="2.57177" transform="matrix(0.593872 0.804601 -0.803503 0.595244 179.903 451.356)" fill="#8D22CF"/>
<ellipse rx="4.72144" ry="4.35074" transform="matrix(0.792081 -0.610416 0.609009 0.793163 184.156 451.987)" fill="#40EC5B"/>
<ellipse rx="1.88858" ry="1.7403" transform="matrix(0.792081 -0.610416 0.609009 0.793163 185.558 447.611)" fill="#37D851"/>
<ellipse rx="1.88858" ry="1.7403" transform="matrix(0.792081 -0.610416 0.609009 0.793163 179.15 451.67)" fill="#37D851"/>
<ellipse rx="1.88858" ry="1.7403" transform="matrix(0.792081 -0.610416 0.609009 0.793163 181.476 456.25)" fill="#37D851"/>
<ellipse rx="1.88858" ry="1.7403" transform="matrix(0.792081 -0.610416 0.609009 0.793163 186.964 455.645)" fill="#37D851"/>
<ellipse rx="1.88858" ry="1.7403" transform="matrix(0.792081 -0.610416 0.609009 0.793163 188.956 450.486)" fill="#37D851"/>
<ellipse rx="1.88858" ry="1.7403" transform="matrix(0.792081 -0.610416 0.609009 0.793163 181.029 447.916)" fill="#37D851"/>
<rect width="5.14342" height="13.2204" rx="2.57171" transform="matrix(-0.60491 -0.796336 0.79521 -0.606278 135.957 497.598)" fill="#8D22CF"/>
<ellipse rx="4.72156" ry="4.35063" transform="matrix(-0.783581 0.62129 -0.619889 -0.78469 131.695 497.026)" fill="#40EC5B"/>
<ellipse rx="1.88863" ry="1.74025" transform="matrix(-0.783581 0.62129 -0.619889 -0.78469 130.353 501.422)" fill="#37D851"/>
<ellipse rx="1.88862" ry="1.74025" transform="matrix(-0.783581 0.62129 -0.619889 -0.78469 136.705 497.274)" fill="#37D851"/>
<ellipse rx="1.88862" ry="1.74025" transform="matrix(-0.783581 0.62129 -0.619889 -0.78469 134.316 492.727)" fill="#37D851"/>
<ellipse rx="1.88862" ry="1.74025" transform="matrix(-0.783581 0.62129 -0.619889 -0.78469 128.836 493.407)" fill="#37D851"/>
<ellipse rx="1.88863" ry="1.74025" transform="matrix(-0.783581 0.62129 -0.619889 -0.78469 126.916 498.594)" fill="#37D851"/>
<ellipse rx="1.88862" ry="1.74025" transform="matrix(-0.783581 0.62129 -0.619889 -0.78469 134.877 501.055)" fill="#37D851"/>
<rect width="5.14395" height="13.219" rx="2.57197" transform="matrix(-0.588483 0.808469 -0.807492 -0.589934 182.193 491.48)" fill="#8D22CF"/>
<ellipse rx="4.72107" ry="4.35108" transform="matrix(0.818523 0.574473 -0.57306 0.819514 182.866 495.735)" fill="#40EC5B"/>
<ellipse rx="1.88843" ry="1.74043" transform="matrix(0.818523 0.574473 -0.57306 0.819514 187.453 495.765)" fill="#37D851"/>
<ellipse rx="1.88843" ry="1.74043" transform="matrix(0.818523 0.574473 -0.57306 0.819514 181.669 490.855)" fill="#37D851"/>
<ellipse rx="1.88843" ry="1.74043" transform="matrix(0.818523 0.574473 -0.57306 0.819514 178.004 494.449)" fill="#37D851"/>
<ellipse rx="1.88843" ry="1.74043" transform="matrix(0.818523 0.574473 -0.57306 0.819514 180.223 499.515)" fill="#37D851"/>
<ellipse rx="1.88843" ry="1.74043" transform="matrix(0.818523 0.574473 -0.57306 0.819514 185.733 499.873)" fill="#37D851"/>
<ellipse rx="1.88843" ry="1.74043" transform="matrix(0.818523 0.574473 -0.57306 0.819514 185.808 491.527)" fill="#37D851"/>
<rect width="5.14705" height="13.211" rx="2.57352" transform="matrix(0.00424478 -0.999992 0.99999 0.00426036 126.731 477.444)" fill="#8D22CF"/>
<ellipse rx="4.71822" ry="4.3537" transform="matrix(-0.999891 0.0147559 -0.0147018 -0.999892 123.698 474.39)" fill="#40EC5B"/>
<ellipse rx="1.88729" ry="1.74148" transform="matrix(-0.999891 0.0147559 -0.0147018 -0.999892 119.962 477.058)" fill="#37D851"/>
<ellipse rx="1.88729" ry="1.74148" transform="matrix(-0.999891 0.0147559 -0.0147018 -0.999892 127.521 477.643)" fill="#37D851"/>
<ellipse rx="1.88729" ry="1.74148" transform="matrix(-0.999891 0.0147559 -0.0147018 -0.999892 128.39 472.579)" fill="#37D851"/>
<ellipse rx="1.88729" ry="1.74148" transform="matrix(-0.999891 0.0147559 -0.0147018 -0.999892 123.63 469.776)" fill="#37D851"/>
<ellipse rx="1.88729" ry="1.74148" transform="matrix(-0.999891 0.0147559 -0.0147018 -0.999892 118.955 472.719)" fill="#37D851"/>
<ellipse rx="1.88729" ry="1.74148" transform="matrix(-0.999891 0.0147559 -0.0147018 -0.999892 123.774 479.527)" fill="#37D851"/>
<rect width="5.13762" height="13.2353" rx="2.56881" transform="matrix(0.999938 -0.0109718 0.0109316 0.999942 154.087 444.889)" fill="#8D22CF"/>
<ellipse rx="4.72688" ry="4.34573" transform="matrix(-0.0298745 -0.999554 0.99955 -0.0299843 157.088 441.805)" fill="#40EC5B"/>
<ellipse rx="1.89076" ry="1.73829" transform="matrix(-0.0298745 -0.999554 0.99955 -0.0299843 154.369 438.103)" fill="#37D851"/>
<ellipse rx="1.89075" ry="1.73829" transform="matrix(-0.0298745 -0.999554 0.99955 -0.0299843 153.9 445.684)" fill="#37D851"/>
<ellipse rx="1.89075" ry="1.73829" transform="matrix(-0.0298745 -0.999554 0.99955 -0.0299843 158.967 446.477)" fill="#37D851"/>
<ellipse rx="1.89075" ry="1.73829" transform="matrix(-0.0298745 -0.999554 0.99955 -0.0299843 161.693 441.667)" fill="#37D851"/>
<ellipse rx="1.89075" ry="1.73829" transform="matrix(-0.0298745 -0.999554 0.99955 -0.0299843 158.685 437.028)" fill="#37D851"/>
<ellipse rx="1.89075" ry="1.73829" transform="matrix(-0.0298745 -0.999554 0.99955 -0.0299843 151.963 441.959)" fill="#37D851"/>
<ellipse cx="157.367" cy="474.412" rx="22.0184" ry="22.0588" fill="#40EC5B"/>
<ellipse cx="149.881" cy="474.853" rx="7.33945" ry="7.35294" fill="#37C44D"/>
<ellipse cx="143.789" cy="487.647" rx="2.7156" ry="2.20588" fill="#37C44D"/>
<ellipse cx="166.394" cy="485.441" rx="3.59633" ry="3.82353" fill="#37C44D"/>
<ellipse cx="160.67" cy="460.662" rx="5.21101" ry="4.04412" fill="#37C44D"/>
<rect width="5.14293" height="13.2216" rx="2.57147" transform="matrix(0.6745 -0.738228 0.737044 0.675896 132.857 455.8)" fill="#8D22CF"/>
<ellipse rx="4.72201" ry="4.35022" transform="matrix(-0.749716 -0.661759 0.660392 -0.750921 132.661 451.497)" fill="#40EC5B"/>
<ellipse rx="1.88881" ry="1.74009" transform="matrix(-0.749716 -0.661759 0.660392 -0.750921 128.105 450.957)" fill="#37D851"/>
<ellipse rx="1.8888" ry="1.74009" transform="matrix(-0.749716 -0.661759 0.660392 -0.750921 133.309 456.48)" fill="#37D851"/>
<ellipse rx="1.8888" ry="1.74009" transform="matrix(-0.749716 -0.661759 0.660392 -0.750921 137.35 453.315)" fill="#37D851"/>
<ellipse rx="1.8888" ry="1.74009" transform="matrix(-0.749716 -0.661759 0.660392 -0.750921 135.706 448.035)" fill="#37D851"/>
<ellipse rx="1.88881" ry="1.74009" transform="matrix(-0.749716 -0.661759 0.660392 -0.750921 130.269 447.065)" fill="#37D851"/>
<ellipse rx="1.8888" ry="1.74009" transform="matrix(-0.749716 -0.661759 0.660392 -0.750921 129.271 455.352)" fill="#37D851"/>
<rect width="5.13762" height="13.2353" rx="2.56881" transform="matrix(-0.999819 -0.0190157 0.018946 -0.999821 159.024 505.389)" fill="#8D22CF"/>
<ellipse cx="155.932" cy="508.382" rx="4.72689" ry="4.34572" transform="rotate(90 155.932 508.382)" fill="#40EC5B"/>
<ellipse cx="158.539" cy="512.164" rx="1.89076" ry="1.73829" transform="rotate(90 158.539 512.164)" fill="#37D851"/>
<ellipse cx="159.235" cy="504.601" rx="1.89076" ry="1.73829" transform="rotate(90 159.235 504.601)" fill="#37D851"/>
<ellipse cx="154.193" cy="503.655" rx="1.89075" ry="1.73829" transform="rotate(90 154.193 503.655)" fill="#37D851"/>
<ellipse cx="151.325" cy="508.382" rx="1.89076" ry="1.73829" transform="rotate(90 151.325 508.382)" fill="#37D851"/>
<ellipse cx="154.193" cy="513.109" rx="1.89076" ry="1.73829" transform="rotate(90 154.193 513.109)" fill="#37D851"/>
<ellipse cx="161.06" cy="508.382" rx="1.89076" ry="1.73829" transform="rotate(90 161.06 508.382)" fill="#37D851"/>
<rect width="5.14705" height="13.211" rx="2.57353" transform="matrix(-0.018946 0.999821 -0.999819 -0.0190157 187.407 471.575)" fill="#8D22CF"/>
<ellipse cx="190.394" cy="474.673" rx="4.71822" ry="4.35371" fill="#40EC5B"/>
<ellipse cx="194.169" cy="472.061" rx="1.88729" ry="1.74148" fill="#37D851"/>
<ellipse cx="186.62" cy="471.365" rx="1.88729" ry="1.74148" fill="#37D851"/>
<ellipse cx="185.676" cy="476.415" rx="1.88729" ry="1.74148" fill="#37D851"/>
<ellipse cx="190.394" cy="479.288" rx="1.88729" ry="1.74148" fill="#37D851"/>
<ellipse cx="195.113" cy="476.415" rx="1.88729" ry="1.74148" fill="#37D851"/>
<ellipse cx="190.394" cy="469.536" rx="1.88729" ry="1.74148" fill="#37D851"/>
<rect width="11.573" height="29.7451" rx="5.78649" transform="matrix(0.593872 0.804601 -0.803503 0.595244 190.531 166.802)" fill="#8D22CF"/>
<ellipse rx="10.6232" ry="9.78916" transform="matrix(0.792081 -0.610416 0.609009 0.793163 200.101 168.222)" fill="#40EC5B"/>
<ellipse rx="4.2493" ry="3.91566" transform="matrix(0.792081 -0.610416 0.609009 0.793163 203.256 158.375)" fill="#37D851"/>
<ellipse rx="4.2493" ry="3.91566" transform="matrix(0.792081 -0.610416 0.609009 0.793163 188.839 167.508)" fill="#37D851"/>
<ellipse rx="4.2493" ry="3.91567" transform="matrix(0.792081 -0.610416 0.609009 0.793163 194.072 177.812)" fill="#37D851"/>
<ellipse rx="4.2493" ry="3.91567" transform="matrix(0.792081 -0.610416 0.609009 0.793163 206.421 176.452)" fill="#37D851"/>
<ellipse rx="4.2493" ry="3.91567" transform="matrix(0.792081 -0.610416 0.609009 0.793163 210.901 164.843)" fill="#37D851"/>
<ellipse rx="4.2493" ry="3.91567" transform="matrix(0.792081 -0.610416 0.609009 0.793163 193.067 159.06)" fill="#37D851"/>
<rect width="11.5727" height="29.7458" rx="5.78635" transform="matrix(-0.60491 -0.796336 0.79521 -0.606278 91.6526 270.846)" fill="#8D22CF"/>
<ellipse rx="10.6235" ry="9.78892" transform="matrix(-0.783581 0.62129 -0.619889 -0.78469 82.0636 269.559)" fill="#40EC5B"/>
<ellipse rx="4.24941" ry="3.91557" transform="matrix(-0.783581 0.62129 -0.619889 -0.78469 79.0448 279.448)" fill="#37D851"/>
<ellipse rx="4.2494" ry="3.91557" transform="matrix(-0.783581 0.62129 -0.619889 -0.78469 93.3348 270.116)" fill="#37D851"/>
<ellipse rx="4.2494" ry="3.91557" transform="matrix(-0.783581 0.62129 -0.619889 -0.78469 87.9606 259.886)" fill="#37D851"/>
<ellipse rx="4.2494" ry="3.91557" transform="matrix(-0.783581 0.62129 -0.619889 -0.78469 75.6315 261.417)" fill="#37D851"/>
<ellipse rx="4.24941" ry="3.91557" transform="matrix(-0.783581 0.62129 -0.619889 -0.78469 71.3119 273.087)" fill="#37D851"/>
<ellipse rx="4.2494" ry="3.91557" transform="matrix(-0.783581 0.62129 -0.619889 -0.78469 89.2237 278.623)" fill="#37D851"/>
<rect width="11.5739" height="29.7428" rx="5.78694" transform="matrix(-0.588483 0.808469 -0.807492 -0.589934 195.686 257.081)" fill="#8D22CF"/>
<ellipse rx="10.6224" ry="9.78993" transform="matrix(0.818523 0.574473 -0.57306 0.819514 197.198 266.654)" fill="#40EC5B"/>
<ellipse rx="4.24897" ry="3.91597" transform="matrix(0.818523 0.574473 -0.57306 0.819514 207.52 266.722)" fill="#37D851"/>
<ellipse rx="4.24897" ry="3.91597" transform="matrix(0.818523 0.574473 -0.57306 0.819514 194.506 255.675)" fill="#37D851"/>
<ellipse rx="4.24896" ry="3.91597" transform="matrix(0.818523 0.574473 -0.57306 0.819514 186.259 263.761)" fill="#37D851"/>
<ellipse rx="4.24897" ry="3.91597" transform="matrix(0.818523 0.574473 -0.57306 0.819514 191.252 275.158)" fill="#37D851"/>
<ellipse rx="4.24897" ry="3.91597" transform="matrix(0.818523 0.574473 -0.57306 0.819514 203.649 275.966)" fill="#37D851"/>
<ellipse rx="4.24897" ry="3.91597" transform="matrix(0.818523 0.574473 -0.57306 0.819514 203.818 257.187)" fill="#37D851"/>
<rect width="11.5809" height="29.7248" rx="5.79043" transform="matrix(0.00424478 -0.999992 0.99999 0.00426036 70.8943 225.499)" fill="#8D22CF"/>
<ellipse rx="10.616" ry="9.79584" transform="matrix(-0.999891 0.0147559 -0.0147018 -0.999892 64.071 218.628)" fill="#40EC5B"/>
<ellipse rx="4.2464" ry="3.91833" transform="matrix(-0.999891 0.0147559 -0.0147018 -0.999892 55.6654 224.631)" fill="#37D851"/>
<ellipse rx="4.2464" ry="3.91833" transform="matrix(-0.999891 0.0147559 -0.0147018 -0.999892 72.6723 225.947)" fill="#37D851"/>
<ellipse rx="4.2464" ry="3.91833" transform="matrix(-0.999891 0.0147559 -0.0147018 -0.999892 74.6281 214.553)" fill="#37D851"/>
<ellipse rx="4.2464" ry="3.91833" transform="matrix(-0.999891 0.0147559 -0.0147018 -0.999892 63.9181 208.246)" fill="#37D851"/>
<ellipse rx="4.2464" ry="3.91833" transform="matrix(-0.999891 0.0147559 -0.0147018 -0.999892 53.3984 214.867)" fill="#37D851"/>
<ellipse rx="4.2464" ry="3.91833" transform="matrix(-0.999891 0.0147559 -0.0147018 -0.999892 64.2409 230.186)" fill="#37D851"/>
<rect width="11.5597" height="29.7793" rx="5.77983" transform="matrix(0.999938 -0.0109718 0.0109316 0.999942 132.445 152.251)" fill="#8D22CF"/>
<ellipse rx="10.6355" ry="9.77789" transform="matrix(-0.0298745 -0.999554 0.99955 -0.0299843 139.199 145.311)" fill="#40EC5B"/>
<ellipse rx="4.2542" ry="3.91115" transform="matrix(-0.0298745 -0.999554 0.99955 -0.0299843 133.081 136.982)" fill="#37D851"/>
<ellipse rx="4.25419" ry="3.91115" transform="matrix(-0.0298745 -0.999554 0.99955 -0.0299843 132.025 154.038)" fill="#37D851"/>
<ellipse rx="4.25419" ry="3.91115" transform="matrix(-0.0298745 -0.999554 0.99955 -0.0299843 143.426 155.824)" fill="#37D851"/>
<ellipse rx="4.25419" ry="3.91115" transform="matrix(-0.0298745 -0.999554 0.99955 -0.0299843 149.559 145)" fill="#37D851"/>
<ellipse rx="4.2542" ry="3.91115" transform="matrix(-0.0298745 -0.999554 0.99955 -0.0299843 142.791 134.563)" fill="#37D851"/>
<ellipse rx="4.25419" ry="3.91115" transform="matrix(-0.0298745 -0.999554 0.99955 -0.0299843 127.666 145.657)" fill="#37D851"/>
<ellipse cx="139.826" cy="218.677" rx="49.5413" ry="49.6323" fill="#40EC5B"/>
<ellipse cx="122.982" cy="219.67" rx="16.5138" ry="16.5441" fill="#37C44D"/>
<ellipse cx="109.275" cy="248.456" rx="6.11009" ry="4.96323" fill="#37C44D"/>
<ellipse cx="160.138" cy="243.493" rx="8.09174" ry="8.60294" fill="#37C44D"/>
<ellipse cx="147.257" cy="187.739" rx="11.7248" ry="9.09926" fill="#37C44D"/>
<rect width="11.5716" height="29.7487" rx="5.7858" transform="matrix(0.6745 -0.738228 0.737044 0.675896 84.6794 176.8)" fill="#8D22CF"/>
<ellipse rx="10.6245" ry="9.78799" transform="matrix(-0.749716 -0.661759 0.660392 -0.750921 84.2361 167.119)" fill="#40EC5B"/>
<ellipse rx="4.24981" ry="3.91519" transform="matrix(-0.749716 -0.661759 0.660392 -0.750921 73.9853 165.904)" fill="#37D851"/>
<ellipse rx="4.24981" ry="3.9152" transform="matrix(-0.749716 -0.661759 0.660392 -0.750921 85.6958 178.329)" fill="#37D851"/>
<ellipse rx="4.24981" ry="3.9152" transform="matrix(-0.749716 -0.661759 0.660392 -0.750921 94.7871 171.209)" fill="#37D851"/>
<ellipse rx="4.24981" ry="3.9152" transform="matrix(-0.749716 -0.661759 0.660392 -0.750921 91.0876 159.327)" fill="#37D851"/>
<ellipse rx="4.24981" ry="3.9152" transform="matrix(-0.749716 -0.661759 0.660392 -0.750921 78.8564 157.148)" fill="#37D851"/>
<ellipse rx="4.24981" ry="3.9152" transform="matrix(-0.749716 -0.661759 0.660392 -0.750921 76.6086 175.792)" fill="#37D851"/>
<rect width="11.5596" height="29.7794" rx="5.77982" transform="matrix(-0.999819 -0.0190157 0.018946 -0.999821 143.555 288.376)" fill="#8D22CF"/>
<ellipse cx="136.597" cy="295.111" rx="10.6355" ry="9.77787" transform="rotate(90 136.597 295.111)" fill="#40EC5B"/>
<ellipse cx="142.463" cy="303.619" rx="4.25421" ry="3.91115" transform="rotate(90 142.463 303.619)" fill="#37D851"/>
<ellipse cx="144.028" cy="286.602" rx="4.2542" ry="3.91115" transform="rotate(90 144.028 286.602)" fill="#37D851"/>
<ellipse cx="132.685" cy="284.475" rx="4.2542" ry="3.91115" transform="rotate(90 132.685 284.475)" fill="#37D851"/>
<ellipse cx="126.232" cy="295.111" rx="4.2542" ry="3.91115" transform="rotate(90 126.232 295.111)" fill="#37D851"/>
<ellipse cx="132.685" cy="305.746" rx="4.25421" ry="3.91115" transform="rotate(90 132.685 305.746)" fill="#37D851"/>
<ellipse cx="148.135" cy="295.11" rx="4.2542" ry="3.91115" transform="rotate(90 148.135 295.11)" fill="#37D851"/>
<rect width="11.5809" height="29.7248" rx="5.79043" transform="matrix(-0.018946 0.999821 -0.999819 -0.0190157 207.416 212.293)" fill="#8D22CF"/>
<ellipse cx="214.137" cy="219.265" rx="10.616" ry="9.79584" fill="#40EC5B"/>
<ellipse cx="222.63" cy="213.387" rx="4.2464" ry="3.91833" fill="#37D851"/>
<ellipse cx="205.645" cy="211.82" rx="4.2464" ry="3.91834" fill="#37D851"/>
<ellipse cx="203.522" cy="223.183" rx="4.24639" ry="3.91834" fill="#37D851"/>
<ellipse cx="214.138" cy="229.648" rx="4.2464" ry="3.91834" fill="#37D851"/>
<ellipse cx="224.753" cy="223.183" rx="4.2464" ry="3.91834" fill="#37D851"/>
<ellipse cx="214.138" cy="207.705" rx="4.2464" ry="3.91834" fill="#37D851"/>
<rect width="9.64415" height="24.7876" rx="4.82207" transform="matrix(0.593872 0.804601 -0.803503 0.595244 194.943 670.668)" fill="#8D22CF"/>
<ellipse rx="8.8527" ry="8.15764" transform="matrix(0.792081 -0.610416 0.609009 0.793163 202.918 671.851)" fill="#40EC5B"/>
<ellipse rx="3.54109" ry="3.26305" transform="matrix(0.792081 -0.610416 0.609009 0.793163 205.547 663.646)" fill="#37D851"/>
<ellipse rx="3.54108" ry="3.26305" transform="matrix(0.792081 -0.610416 0.609009 0.793163 193.533 671.257)" fill="#37D851"/>
<ellipse rx="3.54108" ry="3.26305" transform="matrix(0.792081 -0.610416 0.609009 0.793163 197.893 679.843)" fill="#37D851"/>
<ellipse rx="3.54108" ry="3.26305" transform="matrix(0.792081 -0.610416 0.609009 0.793163 208.184 678.71)" fill="#37D851"/>
<ellipse rx="3.54108" ry="3.26305" transform="matrix(0.792081 -0.610416 0.609009 0.793163 211.917 669.035)" fill="#37D851"/>
<ellipse rx="3.54108" ry="3.26305" transform="matrix(0.792081 -0.610416 0.609009 0.793163 197.055 664.216)" fill="#37D851"/>
<rect width="9.64391" height="24.7882" rx="4.82196" transform="matrix(-0.60491 -0.796336 0.79521 -0.606278 112.544 757.372)" fill="#8D22CF"/>
<ellipse rx="8.85292" ry="8.15743" transform="matrix(-0.783581 0.62129 -0.619889 -0.78469 104.553 756.299)" fill="#40EC5B"/>
<ellipse rx="3.54117" ry="3.26297" transform="matrix(-0.783581 0.62129 -0.619889 -0.78469 102.037 764.54)" fill="#37D851"/>
<ellipse rx="3.54117" ry="3.26297" transform="matrix(-0.783581 0.62129 -0.619889 -0.78469 113.946 756.764)" fill="#37D851"/>
<ellipse rx="3.54117" ry="3.26297" transform="matrix(-0.783581 0.62129 -0.619889 -0.78469 109.467 748.238)" fill="#37D851"/>
<ellipse rx="3.54117" ry="3.26297" transform="matrix(-0.783581 0.62129 -0.619889 -0.78469 99.193 749.514)" fill="#37D851"/>
<ellipse rx="3.54117" ry="3.26297" transform="matrix(-0.783581 0.62129 -0.619889 -0.78469 95.5934 759.239)" fill="#37D851"/>
<ellipse rx="3.54117" ry="3.26297" transform="matrix(-0.783581 0.62129 -0.619889 -0.78469 110.52 763.852)" fill="#37D851"/>
<rect width="9.6449" height="24.7857" rx="4.82245" transform="matrix(-0.588483 0.808469 -0.807492 -0.589934 199.238 745.9)" fill="#8D22CF"/>
<ellipse rx="8.85201" ry="8.15827" transform="matrix(0.818523 0.574473 -0.57306 0.819514 200.499 753.878)" fill="#40EC5B"/>
<ellipse rx="3.54081" ry="3.26331" transform="matrix(0.818523 0.574473 -0.57306 0.819514 209.1 753.935)" fill="#37D851"/>
<ellipse rx="3.5408" ry="3.26331" transform="matrix(0.818523 0.574473 -0.57306 0.819514 198.255 744.729)" fill="#37D851"/>
<ellipse rx="3.5408" ry="3.26331" transform="matrix(0.818523 0.574473 -0.57306 0.819514 191.383 751.467)" fill="#37D851"/>
<ellipse rx="3.54081" ry="3.26331" transform="matrix(0.818523 0.574473 -0.57306 0.819514 195.543 760.965)" fill="#37D851"/>
<ellipse rx="3.54081" ry="3.26331" transform="matrix(0.818523 0.574473 -0.57306 0.819514 205.874 761.638)" fill="#37D851"/>
<ellipse rx="3.54081" ry="3.26331" transform="matrix(0.818523 0.574473 -0.57306 0.819514 206.015 745.989)" fill="#37D851"/>
<rect width="9.65072" height="24.7707" rx="4.82536" transform="matrix(0.00424478 -0.999992 0.99999 0.00426037 95.2454 719.583)" fill="#8D22CF"/>
<ellipse rx="8.84666" ry="8.1632" transform="matrix(-0.999891 0.0147559 -0.0147018 -0.999892 89.5592 713.857)" fill="#40EC5B"/>
<ellipse rx="3.53867" ry="3.26528" transform="matrix(-0.999891 0.0147559 -0.0147018 -0.999892 82.5546 718.859)" fill="#37D851"/>
<ellipse rx="3.53866" ry="3.26528" transform="matrix(-0.999891 0.0147559 -0.0147018 -0.999892 96.7269 719.956)" fill="#37D851"/>
<ellipse rx="3.53866" ry="3.26528" transform="matrix(-0.999891 0.0147559 -0.0147018 -0.999892 98.3568 710.461)" fill="#37D851"/>
<ellipse rx="3.53866" ry="3.26528" transform="matrix(-0.999891 0.0147559 -0.0147018 -0.999892 89.432 705.205)" fill="#37D851"/>
<ellipse rx="3.53867" ry="3.26528" transform="matrix(-0.999891 0.0147559 -0.0147018 -0.999892 80.6654 710.722)" fill="#37D851"/>
<ellipse rx="3.53866" ry="3.26528" transform="matrix(-0.999891 0.0147559 -0.0147018 -0.999892 89.7008 723.488)" fill="#37D851"/>
<rect width="9.63305" height="24.8161" rx="4.81652" transform="matrix(0.999938 -0.0109718 0.0109316 0.999942 146.538 658.542)" fill="#8D22CF"/>
<ellipse rx="8.8629" ry="8.14824" transform="matrix(-0.0298745 -0.999554 0.99955 -0.0299843 152.166 652.76)" fill="#40EC5B"/>
<ellipse rx="3.54517" ry="3.25929" transform="matrix(-0.0298745 -0.999554 0.99955 -0.0299843 147.067 645.819)" fill="#37D851"/>
<ellipse rx="3.54516" ry="3.25929" transform="matrix(-0.0298745 -0.999554 0.99955 -0.0299843 146.188 660.032)" fill="#37D851"/>
<ellipse rx="3.54516" ry="3.2593" transform="matrix(-0.0298745 -0.999554 0.99955 -0.0299843 155.689 661.52)" fill="#37D851"/>
<ellipse rx="3.54516" ry="3.2593" transform="matrix(-0.0298745 -0.999554 0.99955 -0.0299843 160.799 652.5)" fill="#37D851"/>
<ellipse rx="3.54516" ry="3.2593" transform="matrix(-0.0298745 -0.999554 0.99955 -0.0299843 155.159 643.803)" fill="#37D851"/>
<ellipse rx="3.54516" ry="3.2593" transform="matrix(-0.0298745 -0.999554 0.99955 -0.0299843 142.555 653.048)" fill="#37D851"/>
<ellipse cx="152.688" cy="713.897" rx="41.2844" ry="41.3603" fill="#40EC5B"/>
<ellipse cx="138.651" cy="714.724" rx="13.7615" ry="13.7868" fill="#37C44D"/>
<ellipse cx="127.229" cy="738.713" rx="5.09174" ry="4.13603" fill="#37C44D"/>
<ellipse cx="169.615" cy="734.577" rx="6.74312" ry="7.16912" fill="#37C44D"/>
<ellipse cx="158.881" cy="688.115" rx="9.77064" ry="7.58272" fill="#37C44D"/>
<rect width="9.643" height="24.7906" rx="4.8215" transform="matrix(0.6745 -0.738228 0.737044 0.675896 106.733 679)" fill="#8D22CF"/>
<ellipse rx="8.85376" ry="8.15666" transform="matrix(-0.749716 -0.661759 0.660392 -0.750921 106.363 670.932)" fill="#40EC5B"/>
<ellipse rx="3.54151" ry="3.26266" transform="matrix(-0.749716 -0.661759 0.660392 -0.750921 97.8208 669.92)" fill="#37D851"/>
<ellipse rx="3.54151" ry="3.26266" transform="matrix(-0.749716 -0.661759 0.660392 -0.750921 107.58 680.274)" fill="#37D851"/>
<ellipse rx="3.5415" ry="3.26266" transform="matrix(-0.749716 -0.661759 0.660392 -0.750921 115.156 674.341)" fill="#37D851"/>
<ellipse rx="3.54151" ry="3.26266" transform="matrix(-0.749716 -0.661759 0.660392 -0.750921 112.073 664.439)" fill="#37D851"/>
<ellipse rx="3.54151" ry="3.26266" transform="matrix(-0.749716 -0.661759 0.660392 -0.750921 101.88 662.623)" fill="#37D851"/>
<ellipse rx="3.54151" ry="3.26266" transform="matrix(-0.749716 -0.661759 0.660392 -0.750921 100.007 678.159)" fill="#37D851"/>
<rect width="9.63303" height="24.8162" rx="4.81652" transform="matrix(-0.999819 -0.0190157 0.018946 -0.999821 155.796 771.98)" fill="#8D22CF"/>
<ellipse cx="149.997" cy="777.592" rx="8.86292" ry="8.14822" transform="rotate(90 149.997 777.592)" fill="#40EC5B"/>
<ellipse cx="154.886" cy="784.682" rx="3.54517" ry="3.25929" transform="rotate(90 154.886 784.682)" fill="#37D851"/>
<ellipse cx="156.19" cy="770.502" rx="3.54517" ry="3.25929" transform="rotate(90 156.19 770.502)" fill="#37D851"/>
<ellipse cx="146.738" cy="768.729" rx="3.54517" ry="3.25929" transform="rotate(90 146.738 768.729)" fill="#37D851"/>
<ellipse cx="141.36" cy="777.592" rx="3.54517" ry="3.25929" transform="rotate(90 141.36 777.592)" fill="#37D851"/>
<ellipse cx="146.738" cy="786.455" rx="3.54517" ry="3.25929" transform="rotate(90 146.738 786.455)" fill="#37D851"/>
<ellipse cx="159.612" cy="777.592" rx="3.54517" ry="3.25929" transform="rotate(90 159.612 777.592)" fill="#37D851"/>
<rect width="9.65072" height="24.7707" rx="4.82536" transform="matrix(-0.018946 0.999821 -0.999819 -0.0190157 209.013 708.578)" fill="#8D22CF"/>
<ellipse cx="214.614" cy="714.387" rx="8.84666" ry="8.1632" fill="#40EC5B"/>
<ellipse cx="221.692" cy="709.489" rx="3.53867" ry="3.26528" fill="#37D851"/>
<ellipse cx="207.537" cy="708.183" rx="3.53866" ry="3.26528" fill="#37D851"/>
<ellipse cx="205.768" cy="717.652" rx="3.53866" ry="3.26528" fill="#37D851"/>
<ellipse cx="214.615" cy="723.04" rx="3.53866" ry="3.26528" fill="#37D851"/>
<ellipse cx="223.461" cy="717.652" rx="3.53867" ry="3.26528" fill="#37D851"/>
<ellipse cx="214.615" cy="704.755" rx="3.53866" ry="3.26528" fill="#37D851"/>
<rect width="12.8589" height="33.0501" rx="6.42943" transform="matrix(0.593872 0.804601 -0.803503 0.595244 157.257 855.891)" fill="#8D22CF"/>
<ellipse rx="11.8036" ry="10.8768" transform="matrix(0.792081 -0.610416 0.609009 0.793163 167.891 857.468)" fill="#40EC5B"/>
<ellipse rx="4.72145" ry="4.35074" transform="matrix(0.792081 -0.610416 0.609009 0.793163 171.396 846.528)" fill="#37D851"/>
<ellipse rx="4.72144" ry="4.35074" transform="matrix(0.792081 -0.610416 0.609009 0.793163 155.376 856.675)" fill="#37D851"/>
<ellipse rx="4.72144" ry="4.35074" transform="matrix(0.792081 -0.610416 0.609009 0.793163 161.191 868.124)" fill="#37D851"/>
<ellipse rx="4.72144" ry="4.35074" transform="matrix(0.792081 -0.610416 0.609009 0.793163 174.912 866.613)" fill="#37D851"/>
<ellipse rx="4.72145" ry="4.35074" transform="matrix(0.792081 -0.610416 0.609009 0.793163 179.89 853.714)" fill="#37D851"/>
<ellipse rx="4.72144" ry="4.35074" transform="matrix(0.792081 -0.610416 0.609009 0.793163 160.074 847.288)" fill="#37D851"/>
<rect width="12.8586" height="33.0509" rx="6.42928" transform="matrix(-0.60491 -0.796336 0.79521 -0.606278 47.3918 971.495)" fill="#8D22CF"/>
<ellipse rx="11.8039" ry="10.8766" transform="matrix(-0.783581 0.62129 -0.619889 -0.78469 36.7377 970.066)" fill="#40EC5B"/>
<ellipse rx="4.72157" ry="4.35063" transform="matrix(-0.783581 0.62129 -0.619889 -0.78469 33.3834 981.053)" fill="#37D851"/>
<ellipse rx="4.72156" ry="4.35063" transform="matrix(-0.783581 0.62129 -0.619889 -0.78469 49.2611 970.685)" fill="#37D851"/>
<ellipse rx="4.72156" ry="4.35063" transform="matrix(-0.783581 0.62129 -0.619889 -0.78469 43.2899 959.318)" fill="#37D851"/>
<ellipse rx="4.72156" ry="4.35063" transform="matrix(-0.783581 0.62129 -0.619889 -0.78469 29.5907 961.019)" fill="#37D851"/>
<ellipse rx="4.72157" ry="4.35063" transform="matrix(-0.783581 0.62129 -0.619889 -0.78469 24.7911 973.985)" fill="#37D851"/>
<ellipse rx="4.72156" ry="4.35063" transform="matrix(-0.783581 0.62129 -0.619889 -0.78469 44.6935 980.136)" fill="#37D851"/>
<rect width="12.8599" height="33.0475" rx="6.42994" transform="matrix(-0.588483 0.808469 -0.807492 -0.589934 162.984 956.201)" fill="#8D22CF"/>
<ellipse rx="11.8027" ry="10.8777" transform="matrix(0.818523 0.574473 -0.57306 0.819514 164.665 966.837)" fill="#40EC5B"/>
<ellipse rx="4.72108" ry="4.35108" transform="matrix(0.818523 0.574473 -0.57306 0.819514 176.134 966.913)" fill="#37D851"/>
<ellipse rx="4.72108" ry="4.35108" transform="matrix(0.818523 0.574473 -0.57306 0.819514 161.674 954.638)" fill="#37D851"/>
<ellipse rx="4.72107" ry="4.35108" transform="matrix(0.818523 0.574473 -0.57306 0.819514 152.511 963.623)" fill="#37D851"/>
<ellipse rx="4.72108" ry="4.35108" transform="matrix(0.818523 0.574473 -0.57306 0.819514 158.057 976.287)" fill="#37D851"/>
<ellipse rx="4.72108" ry="4.35108" transform="matrix(0.818523 0.574473 -0.57306 0.819514 171.832 977.184)" fill="#37D851"/>
<ellipse rx="4.72107" ry="4.35108" transform="matrix(0.818523 0.574473 -0.57306 0.819514 172.021 956.318)" fill="#37D851"/>
<rect width="12.8676" height="33.0276" rx="6.43382" transform="matrix(0.00424476 -0.999992 0.99999 0.00426038 24.3274 921.11)" fill="#8D22CF"/>
<ellipse rx="11.7955" ry="10.8843" transform="matrix(-0.999891 0.0147559 -0.0147018 -0.999892 16.7457 913.476)" fill="#40EC5B"/>
<ellipse rx="4.71822" ry="4.35371" transform="matrix(-0.999891 0.0147559 -0.0147018 -0.999892 7.40627 920.145)" fill="#37D851"/>
<ellipse rx="4.71822" ry="4.35371" transform="matrix(-0.999891 0.0147559 -0.0147018 -0.999892 26.3028 921.607)" fill="#37D851"/>
<ellipse rx="4.71822" ry="4.35371" transform="matrix(-0.999891 0.0147559 -0.0147018 -0.999892 28.4759 908.948)" fill="#37D851"/>
<ellipse rx="4.71822" ry="4.35371" transform="matrix(-0.999891 0.0147559 -0.0147018 -0.999892 16.576 901.94)" fill="#37D851"/>
<ellipse rx="4.71822" ry="4.35371" transform="matrix(-0.999891 0.0147559 -0.0147018 -0.999892 4.88747 909.296)" fill="#37D851"/>
<ellipse rx="4.71822" ry="4.35371" transform="matrix(-0.999891 0.0147559 -0.0147018 -0.999892 16.9346 926.317)" fill="#37D851"/>
<rect width="12.8441" height="33.0882" rx="6.42203" transform="matrix(0.999938 -0.0109718 0.0109316 0.999942 92.7168 839.723)" fill="#8D22CF"/>
<ellipse rx="11.8172" ry="10.8643" transform="matrix(-0.0298745 -0.999554 0.99955 -0.0299843 100.221 832.012)" fill="#40EC5B"/>
<ellipse rx="4.72689" ry="4.34573" transform="matrix(-0.0298745 -0.999554 0.99955 -0.0299843 93.423 822.758)" fill="#37D851"/>
<ellipse rx="4.72688" ry="4.34573" transform="matrix(-0.0298745 -0.999554 0.99955 -0.0299843 92.2502 841.709)" fill="#37D851"/>
<ellipse rx="4.72688" ry="4.34573" transform="matrix(-0.0298745 -0.999554 0.99955 -0.0299843 104.918 843.694)" fill="#37D851"/>
<ellipse rx="4.72688" ry="4.34573" transform="matrix(-0.0298745 -0.999554 0.99955 -0.0299843 111.732 831.667)" fill="#37D851"/>
<ellipse rx="4.72689" ry="4.34573" transform="matrix(-0.0298745 -0.999554 0.99955 -0.0299843 104.212 820.07)" fill="#37D851"/>
<ellipse rx="4.72688" ry="4.34573" transform="matrix(-0.0298745 -0.999554 0.99955 -0.0299843 87.4069 832.396)" fill="#37D851"/>
<ellipse cx="100.917" cy="913.529" rx="55.0459" ry="55.1471" fill="#40EC5B"/>
<ellipse cx="82.2019" cy="914.632" rx="18.3486" ry="18.3824" fill="#37C44D"/>
<ellipse cx="66.9726" cy="946.617" rx="6.78899" ry="5.51471" fill="#37C44D"/>
<ellipse cx="123.486" cy="941.103" rx="8.99083" ry="9.55882" fill="#37C44D"/>
<ellipse cx="109.174" cy="879.154" rx="13.0275" ry="10.1103" fill="#37C44D"/>
<rect width="12.8573" height="33.0541" rx="6.42866" transform="matrix(0.6745 -0.738228 0.737044 0.675896 39.6438 867)" fill="#8D22CF"/>
<ellipse rx="11.805" ry="10.8755" transform="matrix(-0.749716 -0.661759 0.660392 -0.750921 39.151 856.242)" fill="#40EC5B"/>
<ellipse rx="4.72202" ry="4.35022" transform="matrix(-0.749716 -0.661759 0.660392 -0.750921 27.7614 854.893)" fill="#37D851"/>
<ellipse rx="4.72201" ry="4.35022" transform="matrix(-0.749716 -0.661759 0.660392 -0.750921 40.7729 868.699)" fill="#37D851"/>
<ellipse rx="4.72201" ry="4.35022" transform="matrix(-0.749716 -0.661759 0.660392 -0.750921 50.8744 860.788)" fill="#37D851"/>
<ellipse rx="4.72201" ry="4.35022" transform="matrix(-0.749716 -0.661759 0.660392 -0.750921 46.7641 847.586)" fill="#37D851"/>
<ellipse rx="4.72202" ry="4.35022" transform="matrix(-0.749716 -0.661759 0.660392 -0.750921 33.1735 845.163)" fill="#37D851"/>
<ellipse rx="4.72201" ry="4.35022" transform="matrix(-0.749716 -0.661759 0.660392 -0.750921 30.6762 865.879)" fill="#37D851"/>
<rect width="12.844" height="33.0882" rx="6.42202" transform="matrix(-0.999819 -0.0190157 0.018946 -0.999821 105.061 990.974)" fill="#8D22CF"/>
<ellipse cx="97.3298" cy="998.456" rx="11.8172" ry="10.8643" transform="rotate(90 97.3298 998.456)" fill="#40EC5B"/>
<ellipse cx="103.848" cy="1007.91" rx="4.7269" ry="4.34572" transform="rotate(90 103.848 1007.91)" fill="#37D851"/>
<ellipse cx="105.587" cy="989.002" rx="4.72689" ry="4.34572" transform="rotate(90 105.587 989.002)" fill="#37D851"/>
<ellipse cx="92.9839" cy="986.638" rx="4.72689" ry="4.34572" transform="rotate(90 92.9839 986.638)" fill="#37D851"/>
<ellipse cx="85.8137" cy="998.456" rx="4.72689" ry="4.34572" transform="rotate(90 85.8137 998.456)" fill="#37D851"/>
<ellipse cx="92.9839" cy="1010.27" rx="4.72689" ry="4.34572" transform="rotate(90 92.9839 1010.27)" fill="#37D851"/>
<ellipse cx="110.15" cy="998.456" rx="4.72689" ry="4.34572" transform="rotate(90 110.15 998.456)" fill="#37D851"/>
<rect width="12.8676" height="33.0276" rx="6.43382" transform="matrix(-0.018946 0.999821 -0.999819 -0.0190157 176.018 906.437)" fill="#8D22CF"/>
<ellipse cx="183.486" cy="914.183" rx="11.7955" ry="10.8843" fill="#40EC5B"/>
<ellipse cx="192.923" cy="907.652" rx="4.71822" ry="4.35371" fill="#37D851"/>
<ellipse cx="174.05" cy="905.91" rx="4.71822" ry="4.35371" fill="#37D851"/>
<ellipse cx="171.691" cy="918.536" rx="4.71822" ry="4.35371" fill="#37D851"/>
<ellipse cx="183.487" cy="925.72" rx="4.71822" ry="4.35371" fill="#37D851"/>
<ellipse cx="195.282" cy="918.536" rx="4.71822" ry="4.35371" fill="#37D851"/>
<ellipse cx="183.487" cy="901.339" rx="4.71822" ry="4.35371" fill="#37D851"/>
<path d="M110.27 0H779V1024H110.27C5.88589 953.889 5.9343 900.834 110.27 783C110.27 783 61.7893 740 110.27 670.5C130.171 641.97 151.765 520 131.017 506C110.27 492 110.27 303.5 110.27 303.5C110.27 303.5 46.7953 239.5 110.27 136.5C173.744 33.5 110.27 0 110.27 0Z" fill="#37D851" fill-opacity="0.51"/>
<path d="M81.6226 0H779V1024H81.6226C-27.2328 953.889 -27.1823 900.834 81.6226 783C81.6226 783 31.0654 740 81.6226 670.5C102.376 641.97 124.895 520 103.259 506C81.6226 492 81.6226 303.5 81.6226 303.5C81.6226 303.5 15.4291 239.5 81.6226 136.5C147.816 33.5 81.6226 0 81.6226 0Z" fill="#37D851" fill-opacity="0.51"/>
</svg>
