<svg width="48" height="49" viewBox="0 0 48 49" fill="none" xmlns="http://www.w3.org/2000/svg">
<path fill-rule="evenodd" clip-rule="evenodd" d="M5.38117 12.9148H10.7623V18.296V29.4888V42.9417C10.7623 45.9136 8.3531 48.3229 5.38117 48.3229C2.40923 48.3229 0 45.9136 0 42.9417V29.4888V18.296V12.9148H5.38117Z" fill="#161B21"/>
<circle cx="5.38117" cy="5.38117" r="5.38117" fill="#161B21"/>
<path fill-rule="evenodd" clip-rule="evenodd" d="M44.5917 25.492C43.2513 27.2841 41.5774 28.7755 39.6722 29.88L45.6174 40.1773C47.1033 42.7511 46.2215 46.0421 43.6477 47.5281C41.0739 49.0141 37.7829 48.1322 36.2969 45.5585L28.486 32.0295H18.5714C15.5733 32.0295 13.1429 29.5991 13.1429 26.601C13.1429 23.6029 15.5733 21.1724 18.5714 21.1724L31.7143 21.1724C31.8546 21.1724 31.9936 21.1777 32.1312 21.1882C32.8769 21.1328 33.6066 20.9293 34.2801 20.5874C35.0788 20.182 35.7771 19.5926 36.3217 18.8646C36.8662 18.1366 37.2425 17.2891 37.4217 16.3873C37.6008 15.4854 37.5781 14.5531 37.3553 13.6617L47.4809 10.9501C48.1036 13.4414 48.167 16.0473 47.6662 18.568C47.1654 21.0886 46.1137 23.4571 44.5917 25.492Z" fill="#161B21"/>
<circle cx="40.0359" cy="5.38117" r="5.38117" fill="#161B21"/>
<rect x="13.3901" y="0.00579834" width="18.6099" height="10.7801" rx="5.39007" fill="#F4A950"/>
</svg>
